<svg xmlns="http://www.w3.org/2000/svg" width="24" height="18" viewBox="0 0 24 18"><g><g><path fill="#6236ff" d="M.428 6.447h18.416V9.01a.41.41 0 0 0 .127.3.412.412 0 0 0 .3.127c.126 0 .228-.04.308-.12l4.283-4.271c.08-.08.12-.183.12-.307a.415.415 0 0 0-.12-.307L19.592.174a.504.504 0 0 0-.32-.134.417.417 0 0 0-.308.12.415.415 0 0 0-.12.307V3.03H.428a.412.412 0 0 0-.3.127.41.41 0 0 0-.128.3V6.02a.41.41 0 0 0 .127.3.412.412 0 0 0 .301.127z"/></g><g><path fill="#6236ff" d="M23.554 11.58H5.14V9.017a.41.41 0 0 0-.127-.3.412.412 0 0 0-.301-.127.417.417 0 0 0-.308.12L.12 12.981a.416.416 0 0 0-.12.308c0 .115.04.213.12.293l4.27 4.272a.504.504 0 0 0 .32.133.413.413 0 0 0 .302-.127.41.41 0 0 0 .127-.3v-2.563h18.415a.412.412 0 0 0 .301-.127.41.41 0 0 0 .127-.3v-2.563a.41.41 0 0 0-.127-.3.413.413 0 0 0-.3-.127z"/></g></g></svg>