<?xml version="1.0" encoding="UTF-8"?>
<svg width="19px" height="12px" viewBox="0 0 19 12" version="1.1" xmlns="http://www.w3.org/2000/svg" xmlns:xlink="http://www.w3.org/1999/xlink">
    <!-- Generator: Sketch 54.1 (76490) - https://sketchapp.com -->
    <title>mastercard</title>
    <desc>Created with Sketch.</desc>
    <g id="newest" stroke="none" stroke-width="1" fill="none" fill-rule="evenodd">
        <g id="101" transform="translate(-1010.000000, -708.000000)" fill-rule="nonzero">
            <g id="2" transform="translate(396.000000, 548.000000)">
                <g id="Сколько-хотите-отдать-Copy" transform="translate(596.000000, 104.000000)">
                    <g id="mastercard" transform="translate(18.000000, 56.000000)">
                        <path d="M12,6 C12,9.31442485 9.31422177,12 6,12 C2.68577823,12 0,9.31383259 0,6 C0,2.68616741 2.68643649,1.13686838e-13 6,1.13686838e-13 C9.31356351,1.13686838e-13 12,2.68616741 12,6 Z" id="Path" fill="#E2574C"></path>
                        <path d="M13.0003619,1.13686838e-13 C11.6552059,1.13686838e-13 10.416849,0.448207597 9.41610871,1.19642671 L9.42091237,1.19701897 C9.61773076,1.38719955 9.83488246,1.52104983 10.0022867,1.73998783 L8.75432247,1.75979556 C8.55875434,1.95721485 8.38055834,2.17200704 8.2125619,2.39522245 L10.4132298,2.39522245 C10.580634,2.59619529 10.735404,2.77084556 10.8758287,2.99281065 L7.81359501,2.99281065 C7.70139997,3.18601833 7.59762778,3.38462213 7.5070163,3.5909911 L11.2244559,3.5909911 C11.3216477,3.79676781 11.40864,3.9522026 11.4824716,4.17002188 L7.28683765,4.17002188 C7.22024446,4.37704891 7.16325859,4.588814 7.12002566,4.80479071 L11.6582328,4.80479071 C11.7026502,5.01241 11.7368023,5.20436735 11.7602283,5.40000987 L7.03000642,5.40000987 C7.01019955,5.59742916 7,5.79780974 7,6.0000329 L11.7943804,6.0000329 C11.7943804,6.21245606 11.7793772,6.40921729 11.7577936,6.60005594 L7.03000642,6.60005594 C7.05040551,6.80346361 7.08041193,7.00325193 7.12002566,7.20007897 L11.6509945,7.20007897 C11.6042081,7.39447116 11.5501834,7.59004787 11.4824058,7.79286329 L7.2730189,7.79286329 C7.33658513,7.99804774 7.4140359,8.19724381 7.49859345,8.391636 L11.2244559,8.391636 C11.1212759,8.61004755 11.0042772,8.784632 10.8753023,8.9892242 L7.80286903,8.9892242 C7.92407916,9.19921252 8.05785777,9.3995931 8.20302038,9.59161626 L10.4132956,9.62458528 C10.2249001,9.85076198 9.98313784,9.98698129 9.76289338,10.1849928 C9.77486963,10.1946006 9.41071282,10.1838083 8.69371741,10.1724238 C9.78447694,11.2980428 11.3090134,12 13.0002961,12 C16.3139652,12 19,9.31378151 19,6.0000329 C19,2.68628429 16.3145574,1.13686838e-13 13.0003619,1.13686838e-13 Z" id="Path" fill="#F4B459"></path>
                    </g>
                </g>
            </g>
        </g>
    </g>
</svg>