<svg xmlns="http://www.w3.org/2000/svg" width="174" height="174" viewBox="0 0 174 174"><g><g><g><path d="M43.2 43.2H10.8V10.8h32.4zM54 0H0v54h54z"/></g><g><path d="M22 22h11v11H22z"/></g><g><path d="M163.2 43.2h-32.4V10.8h32.4zM120 0v54h54V0z"/></g><g><path d="M141 22h11v11h-11z"/></g><g><path d="M10.8 130.8h32.4v32.4H10.8zM0 174h54v-54H0z"/></g><g><path d="M22 141h11v11H22z"/></g><g><path d="M87 0h22v11H87z"/></g><g><path d="M87 44h11V33h11V22H76V11H65v22h22z"/></g><g><path d="M65 43h11v11H65z"/></g><g><path d="M109 54H98v11H65v11h44z"/></g><g><path d="M11 98h11V87H11V65H0v44h11z"/></g><g><path d="M22 65h11v11H22z"/></g><g><path d="M65.4 109H87V98H76.2V87H54.6V65H43.8v22H33v22h10.8V98h21.6z"/></g><g><path d="M98 87h11v22H98z"/></g><g><path d="M97.4 120H65v10.8h21.6v32.4H65V174h32.4v-10.8H119v-10.8H97.4z"/></g><g><path d="M65 141h11v11H65z"/></g><g><path d="M109 120h11v22h-11z"/></g><g><path d="M163 141h-33v33h11v-22h22z"/></g><g><path d="M152 163h22v11h-22z"/></g><g><path d="M163 120h11v11h-11z"/></g><g><path d="M131 131h11V98h-22v11h11z"/></g><g><path d="M152.4 76h-10.8V65h-10.8v11H120v11h43.2V76H174V65h-21.6z"/></g><g><path d="M152 98h22v11h-22z"/></g></g></g></svg>