<svg width="210" height="245" viewBox="0 0 210 245" fill="none" xmlns="http://www.w3.org/2000/svg">
<g filter="url(#filter0_f)">
<g filter="url(#filter1_d)">
<circle cx="156" cy="50" r="43" fill="#8FD927"/>
</g>
<path fill-rule="evenodd" clip-rule="evenodd" d="M155.636 74.0951C159.889 74.0951 164.056 72.955 167.692 70.8055C168.614 70.2612 169.812 70.564 170.358 71.4884C170.904 72.4127 170.598 73.6082 169.673 74.1525C165.438 76.6583 160.584 77.9845 155.636 77.9845C140.409 77.9845 128.021 65.594 128.021 50.3671C128.021 36.8008 137.856 25.497 150.767 23.1871V19.4957C150.767 18.6881 151.335 18.3714 152.026 18.7851L155.064 20.61C155.41 20.8169 155.866 21.0905 156.322 21.3642L156.323 21.3648L156.324 21.3654L156.324 21.3658L156.325 21.3658L156.325 21.3659L156.325 21.366C156.78 21.639 157.234 21.9119 157.58 22.1183L160.618 23.9392C161.311 24.3569 161.311 25.0338 160.618 25.4514L157.58 27.2724C157.234 27.479 156.778 27.7523 156.323 28.0257L156.322 28.0265L156.321 28.0272C155.865 28.3006 155.41 28.574 155.064 28.7807L152.026 30.6056C151.335 31.0193 150.767 30.7026 150.767 29.895V27.1457C140.015 29.3942 131.912 38.9504 131.912 50.3671C131.912 63.4484 142.555 74.0951 155.636 74.0951ZM176.743 43.1456C175.947 43.4821 175.029 43.11 174.694 42.3143C174.358 41.5166 174.73 40.6002 175.525 40.2657L181.41 37.7757C182.206 37.4392 183.122 37.8113 183.461 38.607C183.797 39.4027 183.423 40.3191 182.627 40.6556L176.743 43.1456ZM172.476 35.7342L176.992 31.2194C177.604 30.6038 177.604 29.6142 176.992 29.0045C176.381 28.3949 175.391 28.3929 174.782 29.0045L170.265 33.5233C169.653 34.1349 169.651 35.1246 170.265 35.7342C170.876 36.3458 171.864 36.3458 172.476 35.7342ZM165.733 30.4644C165.397 31.2601 164.48 31.6362 163.683 31.2958C162.889 30.9593 162.517 30.0429 162.853 29.2472L165.343 23.3627C165.68 22.567 166.596 22.1949 167.392 22.5313C168.188 22.8678 168.56 23.7843 168.223 24.5799L165.733 30.4644ZM172.476 64.9973C171.862 64.3857 170.874 64.3857 170.265 64.9973C169.651 65.6089 169.653 66.5986 170.265 67.2082L174.782 71.727C175.393 72.3386 176.383 72.3386 176.992 71.727C177.602 71.1154 177.604 70.1257 176.992 69.5161L172.476 64.9973ZM176.743 57.5869L182.628 60.0768C183.425 60.4133 183.798 61.3298 183.461 62.1254C183.123 62.9211 182.206 63.2932 181.411 62.9567L175.526 60.4668C174.732 60.1303 174.356 59.2139 174.695 58.4182C175.029 57.6225 175.948 57.2504 176.743 57.5869ZM184.278 48.8054H177.889C177.024 48.8054 176.325 49.5021 176.325 50.3671C176.325 51.2301 177.026 51.9327 177.889 51.9327H184.28C185.145 51.9327 185.842 51.2301 185.842 50.3671C185.84 49.5001 185.143 48.8054 184.278 48.8054ZM160.498 50.3669C160.498 53.0528 158.319 55.234 155.629 55.234C152.941 55.234 150.76 53.0528 150.758 50.3688C150.758 50.0007 150.803 49.6424 150.88 49.298L144.564 42.3091C143.644 41.3847 143.569 39.9656 144.4 39.1382C145.229 38.3069 146.647 38.3801 147.567 39.3045L154.56 45.6205C154.904 45.5413 155.261 45.4997 155.629 45.4997C158.319 45.4997 160.498 47.677 160.498 50.3669Z" fill="white"/>
</g>
<g filter="url(#filter2_dd)">
<circle cx="86.9114" cy="121.911" r="63" transform="rotate(-23.527 86.9114 121.911)" fill="#FA5C7F"/>
</g>
<path d="M96.2131 102.244L92.2255 93.085L96.6311 91.1669L94.3597 85.9497L54.8251 103.162L57.0965 108.379L61.5021 106.461L65.4645 115.562C67.0292 119.156 70.2321 121.761 74.1298 122.478L81.943 124.11L77.7313 130.909C75.6583 134.225 75.325 138.369 76.8898 141.963L80.8522 151.064L76.4465 152.982L78.718 158.2L118.253 140.987L115.981 135.77L111.576 137.688L107.613 128.587C106.048 124.993 102.846 122.388 98.9479 121.671L91.2179 120.072L95.4296 113.273C97.5026 109.957 97.7779 105.838 96.2131 102.244ZM97.975 127.198C99.9945 127.56 101.646 128.978 102.454 130.833L106.416 139.934L86.1273 148.768L82.165 139.667C81.3573 137.812 81.5025 135.611 82.5554 133.911L87.9685 125.279L97.975 127.198ZM90.9959 104.515C91.8036 106.37 91.6584 108.571 90.6055 110.271L85.1924 118.903L75.1606 116.926C73.1412 116.564 71.4893 115.146 70.6817 113.291L66.7193 104.19L87.0083 95.3564L90.9959 104.515Z" fill="white"/>
<defs>
<filter id="filter0_f" x="106" y="0" width="100" height="100" filterUnits="userSpaceOnUse" color-interpolation-filters="sRGB">
<feFlood flood-opacity="0" result="BackgroundImageFix"/>
<feBlend mode="normal" in="SourceGraphic" in2="BackgroundImageFix" result="shape"/>
<feGaussianBlur stdDeviation="3.5" result="effect1_foregroundBlur"/>
</filter>
<filter id="filter1_d" x="109" y="3" width="94" height="94" filterUnits="userSpaceOnUse" color-interpolation-filters="sRGB">
<feFlood flood-opacity="0" result="BackgroundImageFix"/>
<feColorMatrix in="SourceAlpha" type="matrix" values="0 0 0 0 0 0 0 0 0 0 0 0 0 0 0 0 0 0 127 0"/>
<feOffset/>
<feGaussianBlur stdDeviation="2"/>
<feColorMatrix type="matrix" values="0 0 0 0 0.560784 0 0 0 0 0.85098 0 0 0 0 0.152941 0 0 0 0.2 0"/>
<feBlend mode="normal" in2="BackgroundImageFix" result="effect1_dropShadow"/>
<feBlend mode="normal" in="SourceGraphic" in2="effect1_dropShadow" result="shape"/>
</filter>
<filter id="filter2_dd" x="0" y="35" width="209.823" height="209.823" filterUnits="userSpaceOnUse" color-interpolation-filters="sRGB">
<feFlood flood-opacity="0" result="BackgroundImageFix"/>
<feColorMatrix in="SourceAlpha" type="matrix" values="0 0 0 0 0 0 0 0 0 0 0 0 0 0 0 0 0 0 127 0"/>
<feOffset dx="20" dy="20"/>
<feGaussianBlur stdDeviation="10"/>
<feColorMatrix type="matrix" values="0 0 0 0 0.980392 0 0 0 0 0.360784 0 0 0 0 0.498039 0 0 0 0.06 0"/>
<feBlend mode="normal" in2="BackgroundImageFix" result="effect1_dropShadow"/>
<feColorMatrix in="SourceAlpha" type="matrix" values="0 0 0 0 0 0 0 0 0 0 0 0 0 0 0 0 0 0 127 0"/>
<feOffset/>
<feGaussianBlur stdDeviation="2"/>
<feColorMatrix type="matrix" values="0 0 0 0 0.980392 0 0 0 0 0.360784 0 0 0 0 0.498039 0 0 0 0.2 0"/>
<feBlend mode="normal" in2="effect1_dropShadow" result="effect2_dropShadow"/>
<feBlend mode="normal" in="SourceGraphic" in2="effect2_dropShadow" result="shape"/>
</filter>
</defs>
</svg>
