<svg width="1078" height="900" viewBox="0 0 1078 900" fill="none" xmlns="http://www.w3.org/2000/svg">
<path d="M1130.49 -232.086L207.511 1116.09" stroke="url(#paint0_linear)" stroke-width="7" stroke-dasharray="10 10"/>
<path d="M631 460L1423.75 313.194" stroke="white" stroke-width="7" stroke-dasharray="10 10"/>
<path d="M551.53 -190.741L653.303 467.953" stroke="white" stroke-width="7" stroke-dasharray="10 10"/>
<g filter="url(#filter0_dd)">
<rect x="767.898" y="294" width="270" height="270" rx="56" transform="rotate(80 767.898 294)" fill="white"/>
</g>
<path d="M700.309 427.274L625.873 414.148C624.27 413.866 622.739 414.937 622.457 416.541L611.873 476.562C611.591 478.165 612.662 479.695 614.266 479.978L688.702 493.103C690.305 493.386 691.835 492.314 692.118 490.711L702.701 430.69C702.984 429.087 701.912 427.556 700.309 427.274ZM696.381 432.57L694.077 445.636L656.618 457.413L625.449 433.537L627.753 420.471L696.381 432.571L696.381 432.57ZM618.194 474.683L624.295 440.082L654.248 463.026C654.629 463.318 655.069 463.508 655.529 463.589C655.989 463.67 656.467 463.642 656.926 463.499L692.923 452.182L686.822 486.782L618.194 474.681L618.194 474.683Z" fill="#758CFF" stroke="#758CFF" stroke-width="4"/>
<circle cx="700.116" cy="428.885" r="19.5245" fill="white"/>
<circle cx="700.116" cy="428.885" r="11.485" fill="#758CFF"/>
<path d="M995.477 397.757L1005.59 390.061L993.221 387.143L915.725 368.856L899.47 365.02L909.568 378.323L930.58 406.005L922.644 439.839L918.829 456.099L932.119 445.984L995.477 397.757Z" fill="white" stroke="#E1E8F7" stroke-width="12"/>
<path d="M914.584 93.9724L916.511 81.4134L905.588 87.9046L837.139 128.583L822.781 137.115L839.286 139.67L873.63 144.986L891.425 174.838L899.977 189.184L902.509 172.676L914.584 93.9724Z" fill="white" stroke="#E1E8F7" stroke-width="12"/>
<path d="M614.682 181.275L607.526 170.776L603.964 182.972L581.646 259.405L576.965 275.437L590.778 266.049L619.522 246.514L652.894 256.211L668.933 260.87L659.526 247.07L614.682 181.275Z" fill="white" stroke="#E1E8F7" stroke-width="12"/>
<defs>
<filter id="filter0_dd" x="428" y="264" width="440.783" height="440.783" filterUnits="userSpaceOnUse" color-interpolation-filters="sRGB">
<feFlood flood-opacity="0" result="BackgroundImageFix"/>
<feColorMatrix in="SourceAlpha" type="matrix" values="0 0 0 0 0 0 0 0 0 0 0 0 0 0 0 0 0 0 127 0"/>
<feOffset dx="-10" dy="34"/>
<feGaussianBlur stdDeviation="32"/>
<feColorMatrix type="matrix" values="0 0 0 0 0.458824 0 0 0 0 0.54902 0 0 0 0 1 0 0 0 0.3 0"/>
<feBlend mode="normal" in2="BackgroundImageFix" result="effect1_dropShadow"/>
<feColorMatrix in="SourceAlpha" type="matrix" values="0 0 0 0 0 0 0 0 0 0 0 0 0 0 0 0 0 0 127 0"/>
<feOffset/>
<feGaussianBlur stdDeviation="2"/>
<feColorMatrix type="matrix" values="0 0 0 0 0.458824 0 0 0 0 0.54902 0 0 0 0 1 0 0 0 0.2 0"/>
<feBlend mode="normal" in2="effect1_dropShadow" result="effect2_dropShadow"/>
<feBlend mode="normal" in="SourceGraphic" in2="effect2_dropShadow" result="shape"/>
</filter>
<linearGradient id="paint0_linear" x1="538" y1="642" x2="364" y2="886" gradientUnits="userSpaceOnUse">
<stop stop-color="white"/>
<stop offset="1" stop-color="white" stop-opacity="0"/>
</linearGradient>
</defs>
</svg>
