<svg width="360" height="453" viewBox="0 0 360 453" fill="none" xmlns="http://www.w3.org/2000/svg">
<path d="M287.293 -90L-83.0836 451" stroke="url(#paint0_linear)" stroke-width="2.80899" stroke-dasharray="4.01 4.01"/>
<path d="M86.856 187.723L404.974 128.812" stroke="white" stroke-width="2.80899" stroke-dasharray="4.01 4.01"/>
<path d="M54.967 -73.4087L95.8066 190.915" stroke="white" stroke-width="2.80899" stroke-dasharray="4.01 4.01"/>
<g filter="url(#filter0_dd)">
<rect x="141.792" y="121.11" width="108.347" height="108.347" rx="22.4719" transform="rotate(80 141.792 121.11)" fill="white"/>
</g>
<path d="M114.669 174.591L84.7992 169.324C84.1559 169.21 83.5417 169.64 83.4283 170.284L79.1814 194.369C79.0679 195.012 79.498 195.627 80.1413 195.74L110.011 201.007C110.655 201.12 111.269 200.69 111.382 200.047L115.629 175.962C115.743 175.318 115.313 174.704 114.669 174.591ZM113.093 176.716L112.168 181.959L97.1367 186.685L84.629 177.104L85.5536 171.861L113.093 176.717L113.093 176.716ZM81.7176 193.615L84.1659 179.73L96.1856 188.938C96.3386 189.055 96.515 189.131 96.6997 189.164C96.8844 189.196 97.0763 189.185 97.2601 189.127L111.705 184.586L109.257 198.471L81.7177 193.615L81.7176 193.615Z" fill="#758CFF" stroke="#758CFF" stroke-width="1.60514"/>
<circle cx="114.592" cy="175.237" r="7.83521" fill="white"/>
<circle cx="114.592" cy="175.237" r="4.60895" fill="#758CFF"/>
<path d="M233.114 162.746L237.171 159.658L232.209 158.487L201.111 151.148L194.588 149.609L198.64 154.948L207.072 166.056L203.887 179.633L202.357 186.158L207.69 182.099L233.114 162.746Z" fill="white" stroke="#E1E8F7" stroke-width="4.81541"/>
<path d="M200.653 40.8421L201.427 35.8024L197.043 38.4072L169.576 54.7307L163.814 58.1547L170.438 59.1799L184.219 61.3131L191.36 73.2921L194.792 79.049L195.808 72.4245L200.653 40.8421Z" fill="white" stroke="#E1E8F7" stroke-width="4.81541"/>
<path d="M80.3088 75.8752L77.4372 71.662L76.0081 76.5563L67.0522 107.227L65.1737 113.661L70.7168 109.894L82.251 102.055L95.6429 105.946L102.079 107.816L98.3042 102.278L80.3088 75.8752Z" fill="white" stroke="#E1E8F7" stroke-width="4.81541"/>
<defs>
<filter id="filter0_dd" x="5.3958" y="109.071" width="176.879" height="176.879" filterUnits="userSpaceOnUse" color-interpolation-filters="sRGB">
<feFlood flood-opacity="0" result="BackgroundImageFix"/>
<feColorMatrix in="SourceAlpha" type="matrix" values="0 0 0 0 0 0 0 0 0 0 0 0 0 0 0 0 0 0 127 0"/>
<feOffset dx="-4.01284" dy="13.6437"/>
<feGaussianBlur stdDeviation="12.8411"/>
<feColorMatrix type="matrix" values="0 0 0 0 0.458824 0 0 0 0 0.54902 0 0 0 0 1 0 0 0 0.3 0"/>
<feBlend mode="normal" in2="BackgroundImageFix" result="effect1_dropShadow"/>
<feColorMatrix in="SourceAlpha" type="matrix" values="0 0 0 0 0 0 0 0 0 0 0 0 0 0 0 0 0 0 127 0"/>
<feOffset/>
<feGaussianBlur stdDeviation="0.802568"/>
<feColorMatrix type="matrix" values="0 0 0 0 0.458824 0 0 0 0 0.54902 0 0 0 0 1 0 0 0 0.2 0"/>
<feBlend mode="normal" in2="effect1_dropShadow" result="effect2_dropShadow"/>
<feBlend mode="normal" in="SourceGraphic" in2="effect2_dropShadow" result="shape"/>
</filter>
<linearGradient id="paint0_linear" x1="49.5365" y1="260.757" x2="-20.2869" y2="358.67" gradientUnits="userSpaceOnUse">
<stop stop-color="white"/>
<stop offset="1" stop-color="white" stop-opacity="0"/>
</linearGradient>
</defs>
</svg>
