<svg width="105" height="82" viewBox="0 0 105 82" fill="none" xmlns="http://www.w3.org/2000/svg">
<rect x="4.01004" y="19.8083" width="87.2995" height="58.9314" rx="3.46154" transform="rotate(-10 4.01004 19.8083)" stroke="#394575" stroke-width="6.92308"/>
<path fill-rule="evenodd" clip-rule="evenodd" d="M71.2202 55.0048C69.8094 57.0639 67.6036 58.5761 64.9512 59.0438C59.7163 59.9668 54.7243 56.4714 53.8012 51.2365C52.8782 46.0016 56.3736 41.0095 61.6085 40.0865C64.261 39.6188 66.8511 40.2854 68.8811 41.738C70.292 39.6789 72.4978 38.1666 75.1501 37.699C80.385 36.7759 85.3771 40.2714 86.3001 45.5063C87.2232 50.7412 83.7277 55.7332 78.4928 56.6563C75.8403 57.124 73.2502 56.4573 71.2202 55.0048Z" fill="#394575"/>
<rect x="4.5166" y="36.7793" width="91.1831" height="8.10517" transform="rotate(-10 4.5166 36.7793)" fill="#394575"/>
</svg>
