<svg width="53" height="42" viewBox="0 0 53 42" fill="none" xmlns="http://www.w3.org/2000/svg">
<path d="M52.2 32C52.2 35.0667 51.2 37.5333 49.2 39.4C47.2 41.1333 44.6667 42 41.6 42C38 42 35 40.8 32.6 38.4C30.3333 36 29.2 32.4667 29.2 27.8C29.2 23.4 29.8 19.6667 31 16.6C32.3333 13.4 33.8667 10.7333 35.6 8.59999C37.4667 6.33333 39.3333 4.53333 41.2 3.19999C43.2 1.86666 44.9333 0.933323 46.4 0.399989L51.4 7.39999C48.4667 8.86666 46.0667 10.8667 44.2 13.4C42.4667 15.8 41.6 18.8667 41.6 22.6C42.1333 22.4667 42.8667 22.4 43.8 22.4C46.4667 22.4 48.5333 23.3333 50 25.2C51.4667 27.0667 52.2 29.3333 52.2 32ZM23 32C23 35.0667 22 37.5333 20 39.4C18 41.1333 15.4667 42 12.4 42C8.8 42 5.8 40.8 3.4 38.4C1.13333 36 5.66244e-07 32.4667 5.66244e-07 27.8C5.66244e-07 23.4 0.600001 19.6667 1.8 16.6C3.13333 13.4 4.66667 10.7333 6.4 8.59999C8.26667 6.33333 10.1333 4.53333 12 3.19999C14 1.86666 15.7333 0.933323 17.2 0.399989L22.2 7.39999C19.2667 8.86666 16.8667 10.8667 15 13.4C13.2667 15.8 12.4 18.8667 12.4 22.6C12.9333 22.4667 13.6667 22.4 14.6 22.4C17.2667 22.4 19.3333 23.3333 20.8 25.2C22.2667 27.0667 23 29.3333 23 32Z" fill="#EBEFF1"/>
</svg>
