<svg width="67" height="71" viewBox="0 0 67 71" fill="none" xmlns="http://www.w3.org/2000/svg">
<path d="M11.9471 13.4585C12.2828 11.5548 14.0981 10.2837 16.0017 10.6194L58.0602 18.0354C59.9638 18.3711 61.2349 20.1864 60.8992 22.09L53.6145 63.4039C53.2788 65.3075 51.4635 66.5786 49.5599 66.2429L7.50142 58.8269C5.59779 58.4912 4.3267 56.6759 4.66237 54.7723L11.9471 13.4585Z" fill="#D4DDEB" stroke="#D4DDEB" stroke-width="7"/>
<path d="M22.6651 43.5572L28.1849 51.4403L44.8271 39.7873" stroke="white" stroke-width="7"/>
<rect x="7.25" y="19.948" width="56.7073" height="5.29268" transform="rotate(10 7.25 19.948)" fill="white"/>
<rect x="22.6812" y="2.10083" width="5.29268" height="15.878" rx="2.64634" transform="rotate(10 22.6812 2.10083)" fill="#D4DDEB"/>
<rect x="49.4868" y="6.82764" width="5.29268" height="15.878" rx="2.64634" transform="rotate(10 49.4868 6.82764)" fill="#D4DDEB"/>
<rect x="48.0571" y="15.8025" width="5.29268" height="6.80487" rx="2.64634" transform="rotate(10 48.0571 15.8025)" fill="white"/>
<rect x="21.2534" y="11.0754" width="5.29268" height="6.80487" rx="2.64634" transform="rotate(10 21.2534 11.0754)" fill="white"/>
</svg>
