<svg width="83" height="88" viewBox="0 0 83 88" fill="none" xmlns="http://www.w3.org/2000/svg">
<path fill-rule="evenodd" clip-rule="evenodd" d="M79.8738 29.9625C81.5738 25.2917 79.1655 20.1271 74.4947 18.4271L32.3239 3.07818C27.6531 1.37815 22.4885 3.78644 20.7885 8.45724L6.27354 48.3368C6.2724 48.3399 6.27402 48.3434 6.27715 48.3445C6.27822 48.3449 6.27917 48.3456 6.27986 48.3465L25.4878 73.3528C27.6165 76.124 31.1568 77.4126 34.5688 76.658L65.3583 69.8484C65.3593 69.8481 65.3594 69.8467 65.3584 69.8463C65.3578 69.8461 65.3575 69.8455 65.3577 69.8449L79.8738 29.9625Z" fill="#D4DDEB"/>
<circle cx="47.5504" cy="26.8671" r="10.0032" transform="rotate(20 47.5504 26.8671)" fill="white"/>
<path d="M22.8936 44.4619C25.1603 38.2341 32.0823 34.9247 38.31 37.1914L47.9857 40.7131C54.2134 42.9798 57.3887 49.9643 55.1219 56.192C54.1775 58.7869 51.2934 60.1658 48.6985 59.2214L25.8671 50.9114C23.2722 49.967 21.9492 47.0567 22.8936 44.4619Z" fill="white"/>
</svg>
