<svg width="95" height="75" viewBox="0 0 95 75" fill="none" xmlns="http://www.w3.org/2000/svg">
<path fill-rule="evenodd" clip-rule="evenodd" d="M36.2254 8.92388C36.0716 7.83006 36.8337 6.81872 37.9276 6.66499L46.4696 5.46449C47.5634 5.31076 48.5747 6.07286 48.7284 7.16668L54.3219 46.9664C54.4757 48.0602 53.7136 49.0716 52.6197 49.2253L44.0777 50.4258C42.9839 50.5795 41.9726 49.8174 41.8189 48.7236L36.2254 8.92388ZM21.5999 20.9125C20.5061 21.0662 19.744 22.0776 19.8977 23.1714L23.8438 51.2495C23.9975 52.3433 25.0089 53.1054 26.1027 52.9517L34.6447 51.7512C35.7385 51.5974 36.5006 50.5861 36.3469 49.4923L32.4008 21.4142C32.2471 20.3204 31.2357 19.5583 30.1419 19.712L21.5999 20.9125ZM5.60475 37.5046C4.51093 37.6583 3.74883 38.6697 3.90256 39.7635L5.87183 53.7756C6.02556 54.8694 7.0369 55.6315 8.13072 55.4778L16.6727 54.2773C17.7665 54.1236 18.5286 53.1122 18.3749 52.0184L16.4056 38.0063C16.2519 36.9125 15.2406 36.1504 14.1468 36.3041L5.60475 37.5046ZM92.0642 48.6338C92.4841 50.1978 90.9683 51.5863 89.447 51.0312L83.8086 48.9737C82.8987 48.6417 81.888 49.0096 81.3634 49.8238C74.6212 60.2872 60.2474 71.3657 41.3047 68.7215C39.2001 68.4277 39.3337 65.5052 41.362 64.8714C57.8817 59.7097 63.5911 46.9408 65.6456 41.1955C66.0082 40.1816 65.4677 39.0756 64.4589 38.6989L59.934 37.0093C58.2276 36.3721 58.1918 33.9715 59.8784 33.2837L83.0754 23.8241C84.1898 23.3697 85.4502 23.9952 85.7622 25.1575L92.0642 48.6338Z" fill="#D4DDEB"/>
</svg>
