<svg width="1075" height="900" viewBox="0 0 1075 900" fill="none" xmlns="http://www.w3.org/2000/svg">
<circle cx="361" cy="452" r="263" stroke="white" stroke-width="7" stroke-dasharray="10 10"/>
<circle opacity="0.7" cx="361" cy="452" r="402" stroke="white" stroke-width="7" stroke-dasharray="10 10"/>
<circle opacity="0.4" cx="361" cy="452" r="544" stroke="white" stroke-width="7" stroke-dasharray="10 10"/>
<circle opacity="0.2" cx="361" cy="452" r="691" stroke="white" stroke-width="7" stroke-dasharray="10 10"/>
<circle opacity="0.2" r="710" transform="matrix(-1 0 0 1 361 452)" stroke="white" stroke-width="7" stroke-dasharray="10 10"/>
<g filter="url(#filter0_dd)">
<path d="M504 425.019C524 436.566 524 465.434 504 476.981L306 591.296C286 602.843 261 588.409 261 565.315V336.685C261 313.591 286 299.157 306 310.704L504 425.019Z" fill="white"/>
</g>
<path d="M348.52 471.334L342.895 481.161C332.506 475.089 326.052 463.788 326.052 451.671C326.052 436.973 335.313 424.422 348.253 419.662L340.932 411.339L344.55 404L370.897 420.475L354.594 447.097L348.103 444.22L351.518 430.554C343.191 433.88 337.284 442.089 337.284 451.67C337.283 459.749 341.587 467.286 348.52 471.334ZM393.052 452.333C393.052 440.212 386.594 428.912 376.208 422.842L370.585 432.668C377.514 436.719 381.818 444.252 381.818 452.333C381.818 461.914 375.91 470.119 367.582 473.448L370.996 459.779L364.506 456.904L348.201 483.526L374.549 500L380.459 493.642L370.849 484.338C383.785 479.58 393.052 467.027 393.052 452.333Z" fill="#8FD927"/>
<defs>
<filter id="filter0_dd" x="247" y="276.64" width="386" height="416.72" filterUnits="userSpaceOnUse" color-interpolation-filters="sRGB">
<feFlood flood-opacity="0" result="BackgroundImageFix"/>
<feColorMatrix in="SourceAlpha" type="matrix" values="0 0 0 0 0 0 0 0 0 0 0 0 0 0 0 0 0 0 127 0"/>
<feOffset dx="50" dy="34"/>
<feGaussianBlur stdDeviation="32"/>
<feColorMatrix type="matrix" values="0 0 0 0 0.560784 0 0 0 0 0.85098 0 0 0 0 0.152941 0 0 0 0.3 0"/>
<feBlend mode="normal" in2="BackgroundImageFix" result="effect1_dropShadow"/>
<feColorMatrix in="SourceAlpha" type="matrix" values="0 0 0 0 0 0 0 0 0 0 0 0 0 0 0 0 0 0 127 0"/>
<feOffset/>
<feGaussianBlur stdDeviation="2"/>
<feColorMatrix type="matrix" values="0 0 0 0 0.560784 0 0 0 0 0.85098 0 0 0 0 0.152941 0 0 0 0.2 0"/>
<feBlend mode="normal" in2="effect1_dropShadow" result="effect2_dropShadow"/>
<feBlend mode="normal" in="SourceGraphic" in2="effect2_dropShadow" result="shape"/>
</filter>
</defs>
</svg>
